<?xml version="1.0" encoding="UTF-8" standalone="no"?>
<svg
   fill="none"
   viewBox="0 0 902.99827 26.163723"
   width="144.94354"
   version="1.1"
   id="svg275"
   sodipodi:docname="tr-ink.svg"
   inkscape:version="1.2.1 (9c6d41e410, 2022-07-14, custom)"
   inkscape:export-filename="tr.svg"
   inkscape:export-xdpi="96"
   inkscape:export-ydpi="96"
   height="26.163723"
   xmlns:inkscape="http://www.inkscape.org/namespaces/inkscape"
   xmlns:sodipodi="http://sodipodi.sourceforge.net/DTD/sodipodi-0.dtd"
   xmlns="http://www.w3.org/2000/svg"
   xmlns:svg="http://www.w3.org/2000/svg">
  <defs
     id="defs279" />
  <sodipodi:namedview
     id="namedview277"
     pagecolor="#ffffff"
     bordercolor="#000000"
     borderopacity="0.25"
     inkscape:showpageshadow="2"
     inkscape:pageopacity="0.0"
     inkscape:pagecheckerboard="0"
     inkscape:deskcolor="#d1d1d1"
     showgrid="false"
     inkscape:zoom="2.8957055"
     inkscape:cx="99.284958"
     inkscape:cy="20.375"
     inkscape:window-width="1440"
     inkscape:window-height="857"
     inkscape:window-x="0"
     inkscape:window-y="0"
     inkscape:window-maximized="1"
     inkscape:current-layer="svg275"
     showguides="true">
    <sodipodi:guide
       position="905.76545,-64.383894"
       orientation="1,0"
       id="guide2118"
       inkscape:locked="false" />
  </sodipodi:namedview>
  <path
     fill="#339af0"
     d="m 162.162,13.08186 c 0,-45.011 -36.301,-81.5 -81.08,-81.5 -44.781,0 -81.082,36.489 -81.082,81.5 0,45.01 36.301,81.5 81.081,81.5 44.78,0 81.081,-36.49 81.081,-81.5 z"
     id="path267" />
  <g
     aria-label="Dashboard"
     id="text130"
     style="font-size:124.6px;font-family:'Gotham Rounded';-inkscape-font-specification:'Gotham Rounded, Normal';display:inline;fill:#000000;stroke-width:6.22999">
    <path
       d="m 235.01781,47.803978 c 0,5.3578 4.2364,9.5942 9.5942,9.5942 h 24.4216 c 27.412,0 46.3512,-19.0638 46.3512,-43.609999 v -0.2492 c 0,-24.5462 -18.9392,-43.3608 -46.3512,-43.3608 h -24.4216 c -5.3578,0 -9.5942,4.2364 -9.5942,9.5942 z m 19.1884,-7.7252 v -52.581199 h 14.8274 c 15.6996,0 26.2906,10.8401998 26.2906,26.2906 v 0.2492 c 0,15.450399 -10.591,26.041399 -26.2906,26.041399 z"
       id="path3228" />
    <path
       d="m 349.40056,58.644178 c 9.2204,0 15.575,-3.3642 20.1852,-8.4728 v 0.1246 c 0,3.9872 3.6134,7.8498 9.0958,7.8498 5.1086,0 9.2204,-3.9872 9.2204,-9.0958 V 18.647579 c 0,-8.9712003 -2.2428,-16.3226002 -7.2268,-21.3066002 -4.7348,-4.7347999 -12.2108,-7.4759998 -22.5526,-7.4759998 -8.8466,0 -15.3258,1.2459999 -21.3066,3.4887999 -2.9904,1.1214 -5.1086,3.9871999 -5.1086,7.35139989 0,4.36099991 3.4888,7.72519991 7.8498,7.72519991 0.8722,0 1.6198,-0.1246 2.7412,-0.4984 3.6134,-1.1214 7.8498,-1.869 13.083,-1.869 9.4696,0 14.329,4.3610003 14.329,12.2108003 v 1.1214 c -4.7348,-1.6198 -9.5942,-2.7412 -16.3226,-2.7412 -15.8242,0 -26.9136,6.7284 -26.9136,21.306599 v 0.2492 c 0,13.2076 10.3418,20.4344 22.9264,20.4344 z m 5.7316,-13.083 c -6.1054,0 -10.3418,-2.9904 -10.3418,-8.099 v -0.2492 c 0,-5.9808 4.984,-9.2204 13.083,-9.2204 4.6102,0 8.8466,0.9968 12.0862,2.492 v 3.3642 c 0,6.853 -5.9808,11.7124 -14.8274,11.7124 z"
       id="path3230" />
    <path
       d="m 427.64948,58.644178 c 14.4536,0 25.543,-6.7284 25.543,-21.5558 v -0.2492 c 0,-12.210799 -10.8402,-16.696399 -20.1852,-19.811399 -7.2268,-2.492 -13.5814,-4.2364 -13.5814,-7.9744003 v -0.2492 c 0,-2.6166 2.3674,-4.6101999 6.9776,-4.6101999 3.9872,0 9.0958,1.6197999 14.4536,4.2363999 1.246,0.623 2.1182,0.8722 3.4888,0.8722 4.2364,0 7.6006,-3.2396 7.6006,-7.4759999 0,-3.2396 -1.7444,-5.7315999 -4.4856,-7.1021999 -6.4792,-3.2396 -13.706,-5.1085999 -20.6836,-5.1085999 -13.4568,0 -24.4216,7.6005998 -24.4216,21.182 v 0.2492 c 0,12.9584 10.591,17.319399 19.936,20.060599 7.3514,2.2428 13.8306,3.6134 13.8306,7.7252 v 0.2492 c 0,2.9904 -2.492,4.984 -7.9744,4.984 -5.3578,0 -11.7124,-1.9936 -18.067,-5.9808 -0.9968,-0.623 -2.3674,-0.9968 -3.738,-0.9968 -4.2364,0 -7.476,3.2396 -7.476,7.476 0,2.9904 1.6198,5.2332 3.6134,6.4792 8.099,5.2332 16.9456,7.6006 25.1692,7.6006 z"
       id="path3232" />
    <path
       d="m 466.77398,48.676178 c 0,5.2332 4.2364,9.4696 9.4696,9.4696 5.2332,0 9.4696,-4.2364 9.4696,-9.4696 V 20.142779 c 0,-8.9712 4.6102,-13.5814003 11.837,-13.5814003 7.2268,0 11.4632,4.6102003 11.4632,13.5814003 v 28.533399 c 0,5.2332 4.2364,9.4696 9.4696,9.4696 5.2332,0 9.4696,-4.2364 9.4696,-9.4696 V 14.161979 c 0,-15.3258002 -8.3482,-24.7954 -22.6772,-24.7954 -9.5942,0 -15.2012,5.1085999 -19.5622,10.7155998 V -24.837821 c 0,-5.2332 -4.2364,-9.4696 -9.4696,-9.4696 -5.2332,0 -9.4696,4.2364 -9.4696,9.4696 z"
       id="path3234" />
    <path
       d="m 544.3997,48.676178 c 0,5.2332 4.23639,9.4696 9.46959,9.4696 5.2332,0 9.4696,-4.2364 9.4696,-9.345 v -0.1246 c 4.4856,5.3578 10.7156,9.968 20.8082,9.968 15.8242,0 30.4024,-12.2108 30.4024,-34.514199 v -0.2492 c 0,-22.3034002 -14.8274,-34.5142 -30.4024,-34.5142 -9.8434,0 -16.198,4.6101999 -20.8082,10.8401998 V -24.837821 c 0,-5.2332 -4.2364,-9.4696 -9.4696,-9.4696 -5.2332,0 -9.46959,4.2364 -9.46959,9.4696 z m 34.88799,-6.1054 c -8.8466,0 -16.198,-7.3514 -16.198,-18.440799 v -0.2492 c 0,-11.0894 7.3514,-18.4408003 16.198,-18.4408003 8.8466,0 16.3226,7.3514003 16.3226,18.4408003 v 0.2492 c 0,11.213999 -7.476,18.440799 -16.3226,18.440799 z"
       id="path3236" />
    <path
       d="m 661.27438,58.893378 c 20.8082,0 36.2586,-15.575 36.2586,-34.763399 v -0.2492 c 0,-19.1884003 -15.3258,-34.5142 -36.0094,-34.5142 -20.8082,0 -36.2586,15.5749997 -36.2586,34.7634 v 0.2492 c 0,19.188399 15.3258,34.514199 36.0094,34.514199 z m 0.2492,-16.3226 c -10.4664,0 -17.5686,-8.5974 -17.5686,-18.440799 v -0.2492 c 0,-9.8434 6.4792,-18.1916003 17.3194,-18.1916003 10.4664,0 17.5686,8.5974003 17.5686,18.4408003 v 0.2492 c 0,9.843399 -6.4792,18.191599 -17.3194,18.191599 z"
       id="path3238" />
    <path
       d="m 730.17813,58.644178 c 9.2204,0 15.575,-3.3642 20.1852,-8.4728 v 0.1246 c 0,3.9872 3.6134,7.8498 9.0958,7.8498 5.1086,0 9.2204,-3.9872 9.2204,-9.0958 V 18.647579 c 0,-8.9712003 -2.2428,-16.3226002 -7.2268,-21.3066002 -4.7348,-4.7347999 -12.2108,-7.4759998 -22.5526,-7.4759998 -8.8466,0 -15.3258,1.2459999 -21.3066,3.4887999 -2.9904,1.1214 -5.1086,3.9871999 -5.1086,7.35139989 0,4.36099991 3.4888,7.72519991 7.8498,7.72519991 0.8722,0 1.6198,-0.1246 2.7412,-0.4984 3.6134,-1.1214 7.8498,-1.869 13.083,-1.869 9.4696,0 14.329,4.3610003 14.329,12.2108003 v 1.1214 c -4.7348,-1.6198 -9.5942,-2.7412 -16.3226,-2.7412 -15.8242,0 -26.9136,6.7284 -26.9136,21.306599 v 0.2492 c 0,13.2076 10.3418,20.4344 22.9264,20.4344 z m 5.7316,-13.083 c -6.1054,0 -10.3418,-2.9904 -10.3418,-8.099 v -0.2492 c 0,-5.9808 4.984,-9.2204 13.083,-9.2204 4.6102,0 8.8466,0.9968 12.0862,2.492 v 3.3642 c 0,6.853 -5.9808,11.7124 -14.8274,11.7124 z"
       id="path3240" />
    <path
       d="m 785.00223,48.676178 c 0,5.2332 4.2364,9.4696 9.4696,9.4696 5.2332,0 9.4696,-4.2364 9.4696,-9.4696 v -17.6932 c 0,-13.456799 5.3578,-20.808199 14.952,-23.0509993 3.8626,-0.8722 7.1022,-3.8625999 7.1022,-8.84659989 0,-5.35779991 -3.3642,-9.22039981 -9.2204,-9.22039981 -5.607,0 -10.0926,5.9807999 -12.8338,12.4599998 v -2.99039999 c 0,-5.23319991 -4.2364,-9.46959981 -9.4696,-9.46959981 -5.2332,0 -9.4696,4.2363999 -9.4696,9.46959981 z"
       id="path3242" />
    <path
       d="m 902.9983,-24.837821 c 0,-5.2332 -4.2364,-9.4696 -9.4696,-9.4696 -5.2332,0 -9.4696,4.2364 -9.4696,9.4696 v 24.17239981 c -4.4856,-5.35779991 -10.7156,-9.96799981 -20.8082,-9.96799981 -15.8242,0 -30.4024,12.2107998 -30.4024,34.5142 v 0.2492 c 0,22.303399 14.8274,34.514199 30.4024,34.514199 9.8434,0 16.198,-4.6102 20.8082,-10.8402 v 0.8722 c 0,5.2332 4.2364,9.4696 9.4696,9.4696 5.2332,0 9.4696,-4.2364 9.4696,-9.4696 z m -34.888,30.2777997 c 8.8466,0 16.198,7.3514003 16.198,18.4408003 v 0.2492 c 0,11.089399 -7.3514,18.440799 -16.198,18.440799 -8.8466,0 -16.3226,-7.3514 -16.3226,-18.440799 v -0.2492 c 0,-11.214 7.476,-18.4408003 16.3226,-18.4408003 z"
       id="path3244" />
  </g>
  <g
     aria-label="Tr"
     id="text470"
     style="font-size:112.093px;font-family:'Gotham Rounded';-inkscape-font-specification:'Gotham Rounded, Normal';fill:#ffffff;stroke-width:6.00498">
    <path
       d="m 51.992775,44.019439 c 0,4.82 3.811162,8.631162 8.631161,8.631162 4.819999,0 8.631161,-3.811162 8.631161,-8.631162 v -54.589292 h 16.589765 c 4.371627,0 7.958603,-3.586976 7.958603,-7.958603 0,-4.371627 -3.586976,-7.958603 -7.958603,-7.958603 H 35.403011 c -4.371628,0 -7.958604,3.586976 -7.958604,7.958603 0,4.371627 3.586976,7.958603 7.958604,7.958603 h 16.589764 z"
       id="path3223" />
    <path
       d="m 97.838955,44.131532 c 0,4.707907 3.811165,8.519069 8.519065,8.519069 4.70791,0 8.51907,-3.811162 8.51907,-8.519069 V 28.214326 c 0,-12.106044 4.82,-18.7195313 13.45116,-20.7372053 3.47488,-0.784651 6.3893,-3.4748831 6.3893,-7.95860318 0,-4.81999912 -3.02651,-8.29488222 -8.29488,-8.29488222 -5.04418,0 -9.07953,5.3804642 -11.54558,11.2093003 v -2.69023208 c 0,-4.70790612 -3.81116,-8.51906822 -8.51907,-8.51906822 -4.7079,0 -8.519065,3.8111621 -8.519065,8.51906822 z"
       id="path3225" />
  </g>
</svg>
