<svg width="144.94" height="26.164" version="1.1" viewBox="0 0 903 26.164" xmlns="http://www.w3.org/2000/svg">
 <path d="m162.16 13.082c0-45.011-36.301-81.5-81.08-81.5-44.781 0-81.082 36.489-81.082 81.5 0 45.01 36.301 81.5 81.081 81.5s81.081-36.49 81.081-81.5z" fill="#339af0"/>
 <g stroke-width="6.23" aria-label="Dashboard">
  <path d="m235.02 47.804c0 5.3578 4.2364 9.5942 9.5942 9.5942h24.422c27.412 0 46.351-19.064 46.351-43.61v-0.2492c0-24.546-18.939-43.361-46.351-43.361h-24.422c-5.3578 0-9.5942 4.2364-9.5942 9.5942zm19.188-7.7252v-52.581h14.827c15.7 0 26.291 10.84 26.291 26.291v0.2492c0 15.45-10.591 26.041-26.291 26.041z"/>
  <path d="m349.4 58.644c9.2204 0 15.575-3.3642 20.185-8.4728v0.1246c0 3.9872 3.6134 7.8498 9.0958 7.8498 5.1086 0 9.2204-3.9872 9.2204-9.0958v-30.402c0-8.9712-2.2428-16.323-7.2268-21.307-4.7348-4.7348-12.211-7.476-22.553-7.476-8.8466 0-15.326 1.246-21.307 3.4888-2.9904 1.1214-5.1086 3.9872-5.1086 7.3514 0 4.361 3.4888 7.7252 7.8498 7.7252 0.8722 0 1.6198-0.1246 2.7412-0.4984 3.6134-1.1214 7.8498-1.869 13.083-1.869 9.4696 0 14.329 4.361 14.329 12.211v1.1214c-4.7348-1.6198-9.5942-2.7412-16.323-2.7412-15.824 0-26.914 6.7284-26.914 21.307v0.2492c0 13.208 10.342 20.434 22.926 20.434zm5.7316-13.083c-6.1054 0-10.342-2.9904-10.342-8.099v-0.2492c0-5.9808 4.984-9.2204 13.083-9.2204 4.6102 0 8.8466 0.9968 12.086 2.492v3.3642c0 6.853-5.9808 11.712-14.827 11.712z"/>
  <path d="m427.65 58.644c14.454 0 25.543-6.7284 25.543-21.556v-0.2492c0-12.211-10.84-16.696-20.185-19.811-7.2268-2.492-13.581-4.2364-13.581-7.9744v-0.2492c0-2.6166 2.3674-4.6102 6.9776-4.6102 3.9872 0 9.0958 1.6198 14.454 4.2364 1.246 0.623 2.1182 0.8722 3.4888 0.8722 4.2364 0 7.6006-3.2396 7.6006-7.476 0-3.2396-1.7444-5.7316-4.4856-7.1022-6.4792-3.2396-13.706-5.1086-20.684-5.1086-13.457 0-24.422 7.6006-24.422 21.182v0.2492c0 12.958 10.591 17.319 19.936 20.061 7.3514 2.2428 13.831 3.6134 13.831 7.7252v0.2492c0 2.9904-2.492 4.984-7.9744 4.984-5.3578 0-11.712-1.9936-18.067-5.9808-0.9968-0.623-2.3674-0.9968-3.738-0.9968-4.2364 0-7.476 3.2396-7.476 7.476 0 2.9904 1.6198 5.2332 3.6134 6.4792 8.099 5.2332 16.946 7.6006 25.169 7.6006z"/>
  <path d="m466.77 48.676c0 5.2332 4.2364 9.4696 9.4696 9.4696s9.4696-4.2364 9.4696-9.4696v-28.533c0-8.9712 4.6102-13.581 11.837-13.581s11.463 4.6102 11.463 13.581v28.533c0 5.2332 4.2364 9.4696 9.4696 9.4696s9.4696-4.2364 9.4696-9.4696v-34.514c0-15.326-8.3482-24.795-22.677-24.795-9.5942 0-15.201 5.1086-19.562 10.716v-24.92c0-5.2332-4.2364-9.4696-9.4696-9.4696s-9.4696 4.2364-9.4696 9.4696z"/>
  <path d="m544.4 48.676c0 5.2332 4.2364 9.4696 9.4696 9.4696s9.4696-4.2364 9.4696-9.345v-0.1246c4.4856 5.3578 10.716 9.968 20.808 9.968 15.824 0 30.402-12.211 30.402-34.514v-0.2492c0-22.303-14.827-34.514-30.402-34.514-9.8434 0-16.198 4.6102-20.808 10.84v-25.045c0-5.2332-4.2364-9.4696-9.4696-9.4696s-9.4696 4.2364-9.4696 9.4696zm34.888-6.1054c-8.8466 0-16.198-7.3514-16.198-18.441v-0.2492c0-11.089 7.3514-18.441 16.198-18.441s16.323 7.3514 16.323 18.441v0.2492c0 11.214-7.476 18.441-16.323 18.441z"/>
  <path d="m661.27 58.893c20.808 0 36.259-15.575 36.259-34.763v-0.2492c0-19.188-15.326-34.514-36.009-34.514-20.808 0-36.259 15.575-36.259 34.763v0.2492c0 19.188 15.326 34.514 36.009 34.514zm0.2492-16.323c-10.466 0-17.569-8.5974-17.569-18.441v-0.2492c0-9.8434 6.4792-18.192 17.319-18.192 10.466 0 17.569 8.5974 17.569 18.441v0.2492c0 9.8434-6.4792 18.192-17.319 18.192z"/>
  <path d="m730.18 58.644c9.2204 0 15.575-3.3642 20.185-8.4728v0.1246c0 3.9872 3.6134 7.8498 9.0958 7.8498 5.1086 0 9.2204-3.9872 9.2204-9.0958v-30.402c0-8.9712-2.2428-16.323-7.2268-21.307-4.7348-4.7348-12.211-7.476-22.553-7.476-8.8466 0-15.326 1.246-21.307 3.4888-2.9904 1.1214-5.1086 3.9872-5.1086 7.3514 0 4.361 3.4888 7.7252 7.8498 7.7252 0.8722 0 1.6198-0.1246 2.7412-0.4984 3.6134-1.1214 7.8498-1.869 13.083-1.869 9.4696 0 14.329 4.361 14.329 12.211v1.1214c-4.7348-1.6198-9.5942-2.7412-16.323-2.7412-15.824 0-26.914 6.7284-26.914 21.307v0.2492c0 13.208 10.342 20.434 22.926 20.434zm5.7316-13.083c-6.1054 0-10.342-2.9904-10.342-8.099v-0.2492c0-5.9808 4.984-9.2204 13.083-9.2204 4.6102 0 8.8466 0.9968 12.086 2.492v3.3642c0 6.853-5.9808 11.712-14.827 11.712z"/>
  <path d="m785 48.676c0 5.2332 4.2364 9.4696 9.4696 9.4696s9.4696-4.2364 9.4696-9.4696v-17.693c0-13.457 5.3578-20.808 14.952-23.051 3.8626-0.8722 7.1022-3.8626 7.1022-8.8466 0-5.3578-3.3642-9.2204-9.2204-9.2204-5.607 0-10.093 5.9808-12.834 12.46v-2.9904c0-5.2332-4.2364-9.4696-9.4696-9.4696s-9.4696 4.2364-9.4696 9.4696z"/>
  <path d="m903-24.838c0-5.2332-4.2364-9.4696-9.4696-9.4696s-9.4696 4.2364-9.4696 9.4696v24.172c-4.4856-5.3578-10.716-9.968-20.808-9.968-15.824 0-30.402 12.211-30.402 34.514v0.2492c0 22.303 14.827 34.514 30.402 34.514 9.8434 0 16.198-4.6102 20.808-10.84v0.8722c0 5.2332 4.2364 9.4696 9.4696 9.4696s9.4696-4.2364 9.4696-9.4696zm-34.888 30.278c8.8466 0 16.198 7.3514 16.198 18.441v0.2492c0 11.089-7.3514 18.441-16.198 18.441s-16.323-7.3514-16.323-18.441v-0.2492c0-11.214 7.476-18.441 16.323-18.441z"/>
 </g>
 <g fill="#fff" stroke-width="6.005" aria-label="Tr">
  <path d="m51.993 44.019c0 4.82 3.8112 8.6312 8.6312 8.6312s8.6312-3.8112 8.6312-8.6312v-54.589h16.59c4.3716 0 7.9586-3.587 7.9586-7.9586s-3.587-7.9586-7.9586-7.9586h-50.442c-4.3716 0-7.9586 3.587-7.9586 7.9586s3.587 7.9586 7.9586 7.9586h16.59z"/>
  <path d="m97.839 44.132c0 4.7079 3.8112 8.5191 8.5191 8.5191 4.7079 0 8.5191-3.8112 8.5191-8.5191v-15.917c0-12.106 4.82-18.72 13.451-20.737 3.4749-0.78465 6.3893-3.4749 6.3893-7.9586 0-4.82-3.0265-8.2949-8.2949-8.2949-5.0442 0-9.0795 5.3805-11.546 11.209v-2.6902c0-4.7079-3.8112-8.5191-8.5191-8.5191-4.7079 0-8.5191 3.8112-8.5191 8.5191z"/>
 </g>
</svg>
